<svg width="56" height="56" viewBox="0 0 56 56" fill="none" xmlns="http://www.w3.org/2000/svg">
<circle cx="28" cy="28" r="27" stroke="white" stroke-opacity="0.5" stroke-width="2"/>
<path d="M38.5406 22.42C38.4218 21.9454 38.1799 21.5106 37.8392 21.1594C37.4986 20.8082 37.0713 20.5532 36.6006 20.42C34.8806 20 28.0006 20 28.0006 20C28.0006 20 21.1206 20 19.4006 20.46C18.9298 20.5932 18.5025 20.8482 18.1619 21.1994C17.8213 21.5506 17.5794 21.9854 17.4606 22.46C17.1458 24.2056 16.9918 25.9763 17.0006 27.75C16.9894 29.537 17.1433 31.3213 17.4606 33.08C17.5915 33.5398 17.8389 33.9581 18.1787 34.2945C18.5186 34.6308 18.9394 34.8738 19.4006 35C21.1206 35.46 28.0006 35.46 28.0006 35.46C28.0006 35.46 34.8806 35.46 36.6006 35C37.0713 34.8668 37.4986 34.6118 37.8392 34.2606C38.1799 33.9094 38.4218 33.4746 38.5406 33C38.8529 31.2676 39.0069 29.5103 39.0006 27.75C39.0118 25.963 38.8578 24.1787 38.5406 22.42Z" stroke="white" stroke-opacity="0.5" stroke-width="2" stroke-linecap="round" stroke-linejoin="round"/>
<path d="M25.7506 31.0205L31.5006 27.7505L25.7506 24.4805V31.0205Z" stroke="white" stroke-opacity="0.5" stroke-width="2" stroke-linecap="round" stroke-linejoin="round"/>
</svg>
