<svg width="180" height="22" viewBox="0 0 180 22" fill="none" xmlns="http://www.w3.org/2000/svg">
<path d="M18.8955 5.425C18.8955 6.1 18.2955 6.7 17.6205 6.7C16.9455 6.7 16.3455 6.1 16.3455 5.425V2.275C16.3455 1.6 16.9455 1 17.6205 1C18.2955 1 18.8955 1.6 18.8955 2.275V5.425Z" fill="#D16FA7"/>
<path d="M11.3205 5.95C11.6205 6.55 11.3205 7.375 10.7205 7.6C10.1205 7.9 9.29547 7.6 9.07047 7L7.72047 4.15C7.42047 3.55 7.72047 2.725 8.32047 2.5C8.92047 2.2 9.74547 2.5 9.97047 3.1L11.3205 5.95Z" fill="#EEC600"/>
<path d="M4.42048 8.95C4.94548 9.4 5.02048 10.225 4.57048 10.75C4.12048 11.275 3.29548 11.35 2.77048 10.9L0.445479 8.8C-0.0795215 8.35 -0.154522 7.525 0.295478 7C0.745479 6.475 1.57048 6.4 2.09548 6.85L4.42048 8.95Z" fill="#E47627"/>
<path d="M23.9955 5.95C23.6955 6.55 23.9955 7.375 24.5955 7.6C25.1955 7.9 26.0205 7.6 26.2455 7L27.5955 4.15C27.8955 3.55 27.5955 2.725 26.9955 2.5C26.3955 2.2 25.5705 2.5 25.3455 3.1L23.9955 5.95Z" fill="#2FA5CD"/>
<path d="M30.8205 8.95C30.2955 9.4 30.2205 10.225 30.6705 10.75C31.1205 11.275 31.9455 11.35 32.4705 10.9L34.7955 8.8C35.3205 8.35 35.3955 7.525 34.9455 7C34.4955 6.475 33.7455 6.4 33.2205 6.85L30.8205 8.95Z" fill="#6FB92C"/>
<path d="M17.6205 11.275C14.6955 11.275 12.2955 13.675 12.2955 16.6C12.2955 19.525 14.6955 21.925 17.6205 21.925C20.5455 21.925 22.9455 19.525 22.9455 16.6C23.0205 13.675 20.6205 11.275 17.6205 11.275ZM17.6205 18.85C16.4205 18.85 15.4455 17.875 15.4455 16.675C15.4455 15.475 16.4205 14.5 17.6205 14.5C18.8205 14.5 19.7955 15.475 19.7955 16.675C19.7955 17.875 18.8205 18.85 17.6205 18.85Z" fill="#163348"/>
<path d="M31.7955 15.7C31.7205 15.55 31.7205 15.475 31.6455 15.4C31.4205 15.175 31.2705 14.95 31.0455 14.725C27.7455 11.275 22.9455 9.175 17.6205 9.175C12.2955 9.175 7.42048 11.35 4.19548 14.725C3.97048 14.95 3.82048 15.175 3.59548 15.4C3.52048 15.475 3.52048 15.625 3.44548 15.7C3.37048 15.85 3.37048 16 3.37048 16.15C3.37048 17.05 4.12048 17.8 5.02048 17.8C5.32048 17.8 5.54548 17.725 5.77048 17.65C5.84548 17.575 5.92048 17.5 6.07048 17.425C6.22048 17.275 6.37048 17.125 6.44548 16.975C9.14548 14.05 13.1205 12.175 17.6205 12.175C22.1205 12.175 26.1705 14.05 28.7955 16.975C28.9455 17.125 29.0955 17.275 29.1705 17.425C29.2455 17.5 29.3205 17.575 29.4705 17.65C29.6955 17.8 29.9205 17.8 30.2205 17.8C31.1205 17.8 31.8705 17.05 31.8705 16.15C31.8705 16 31.8705 15.85 31.7955 15.7Z" fill="#163348"/>
<path d="M63.825 9.7C64.275 10.15 64.8 10.45 65.4 10.675C66 10.9 66.675 11.05 67.35 11.05C68.025 11.05 68.7 10.9 69.3 10.675C69.9 10.45 70.425 10.075 70.95 9.7C71.4 9.325 71.775 8.8 72 8.275C72.3 7.675 72.45 7.075 72.45 6.4C72.45 5.725 72.3 5.125 72.075 4.6C71.775 4 71.475 3.55 71.025 3.1C70.575 2.725 70.05 2.35 69.375 2.125C68.775 1.9 68.1 1.75 67.425 1.75C66.75 1.75 66.075 1.9 65.475 2.125C64.875 2.35 64.35 2.725 63.9 3.1C63.45 3.55 63.075 4 62.775 4.6C62.475 5.2 62.4 5.8 62.4 6.4C62.4 7 62.55 7.675 62.775 8.2C63 8.8 63.375 9.325 63.825 9.7ZM65.85 4.9C66.3 4.525 66.825 4.3 67.425 4.3C68.025 4.3 68.55 4.525 69 4.9C69.45 5.275 69.6 5.8 69.6 6.4C69.6 7 69.375 7.45 69 7.9C68.55 8.275 68.025 8.5 67.425 8.5C66.825 8.5 66.3 8.275 65.85 7.9C65.4 7.525 65.25 7 65.25 6.4C65.175 5.8 65.4 5.35 65.85 4.9Z" fill="#163348"/>
<path d="M74.85 12.025H60V14.575H74.85V12.025Z" fill="#163348"/>
<path d="M64.95 15.4H62.1V21.4H73.2V18.925H64.95V15.4Z" fill="#163348"/>
<path d="M89.925 14.2C89.55 13.825 89.025 13.525 88.5 13.3C87.975 13.075 87.375 13 86.775 13C86.175 13 85.575 13.075 85.05 13.3C84.525 13.525 84 13.825 83.625 14.2C83.175 14.575 82.875 15.025 82.65 15.55C82.425 16.075 82.275 16.6 82.275 17.2C82.275 17.8 82.425 18.325 82.65 18.85C82.875 19.375 83.175 19.825 83.625 20.125C84 20.5 84.525 20.8 85.05 21.025C85.575 21.25 86.175 21.325 86.775 21.325C87.375 21.325 87.975 21.25 88.5 21.025C89.025 20.8 89.55 20.5 89.925 20.125C90.3 19.75 90.675 19.3 90.9 18.85C91.125 18.325 91.275 17.8 91.275 17.2C91.275 16.6 91.125 16.075 90.9 15.55C90.675 15.025 90.375 14.575 89.925 14.2ZM88.05 18.325C87.675 18.625 87.3 18.775 86.775 18.775C86.25 18.775 85.875 18.625 85.5 18.325C85.125 18.025 84.975 17.575 84.975 17.125C84.975 16.675 85.125 16.3 85.5 16C85.875 15.7 86.25 15.55 86.775 15.55C87.3 15.55 87.675 15.7 88.05 16C88.425 16.3 88.575 16.675 88.575 17.125C88.575 17.65 88.35 18.025 88.05 18.325Z" fill="#163348"/>
<path d="M86.625 10.675L82.575 4.3V1.75H79.8V4.225L75.825 10.675L78.075 12.325L81.15 7L84.3 12.325L86.625 10.675Z" fill="#163348"/>
<path d="M88.8 5.425H85.35V8.05H88.8V12.7H91.725V1.75H88.8V5.425Z" fill="#163348"/>
<path d="M102.6 10.6H106.875V1.75H95.55V10.6H99.75V12.7H93.825V15.325H108.6V12.7H102.675V10.6H102.6ZM98.325 7.975V4.45H104.025V7.975H98.325Z" fill="#163348"/>
<path d="M117 11.35C117.6 11.125 118.125 10.75 118.575 10.3C119.025 9.85 119.325 9.325 119.625 8.725C119.85 8.125 120 7.45 120 6.775C120 6.1 119.85 5.425 119.625 4.825C119.4 4.225 119.025 3.7 118.575 3.25C118.125 2.8 117.6 2.425 117 2.2C116.4 1.9 115.725 1.825 115.05 1.825C114.375 1.825 113.7 1.975 113.175 2.2C112.575 2.5 112.05 2.8 111.675 3.25C111.225 3.7 110.85 4.225 110.625 4.825C110.4 5.425 110.25 6.1 110.25 6.775C110.25 7.45 110.4 8.125 110.625 8.725C110.85 9.325 111.225 9.85 111.675 10.3C112.125 10.75 112.575 11.125 113.175 11.35C113.775 11.575 114.375 11.725 115.05 11.725C115.725 11.8 116.4 11.65 117 11.35ZM113.55 8.65C113.325 8.425 113.175 8.2 113.1 7.9C112.95 7.6 112.95 7.3 112.95 6.925C112.95 6.175 113.175 5.575 113.55 5.125C114 4.675 114.525 4.45 115.125 4.45C115.725 4.45 116.25 4.675 116.7 5.125C117.15 5.575 117.3 6.175 117.3 6.925C117.3 7.3 117.225 7.6 117.15 7.9C117 8.2 116.85 8.5 116.7 8.65C116.475 8.875 116.25 9.1 116.025 9.175C115.725 9.325 115.5 9.4 115.2 9.4C114.9 9.4 114.6 9.325 114.375 9.175C113.925 9.1 113.7 8.95 113.55 8.65Z" fill="#163348"/>
<path d="M124.725 1.75H121.8V13.9H124.725V8.95H127.575V6.25H124.725V1.75Z" fill="#163348"/>
<path d="M117.225 13.6H114.3V20.125H124.5V17.5H117.225V13.6Z" fill="#163348"/>
<path d="M162.225 1.75H159.375V18.475H162.225V1.75Z" fill="#163348"/>
<path d="M149.025 9.925C149.475 10.375 149.925 10.675 150.525 10.975C151.125 11.2 151.725 11.35 152.4 11.35C153.075 11.35 153.675 11.2 154.275 10.975C154.875 10.75 155.325 10.375 155.775 9.925C156.225 9.475 156.525 9.025 156.825 8.425C157.05 7.825 157.2 7.225 157.2 6.55C157.2 5.875 157.05 5.275 156.825 4.675C156.6 4.075 156.225 3.625 155.775 3.175C155.325 2.725 154.8 2.425 154.275 2.125C153.675 1.9 153.075 1.75 152.4 1.75C151.725 1.75 151.125 1.9 150.525 2.125C149.925 2.35 149.4 2.725 149.025 3.175C148.575 3.625 148.2 4.15 147.975 4.675C147.75 5.275 147.6 5.875 147.6 6.55C147.6 7.225 147.75 7.825 147.975 8.425C148.275 8.95 148.575 9.475 149.025 9.925ZM150.975 5.05C151.35 4.6 151.875 4.45 152.4 4.45C152.7 4.45 152.925 4.525 153.15 4.6C153.375 4.675 153.6 4.825 153.825 5.05C153.975 5.275 154.125 5.5 154.275 5.725C154.35 6.025 154.425 6.25 154.425 6.55C154.425 6.85 154.35 7.075 154.275 7.375C154.2 7.675 154.05 7.9 153.825 8.05C153.675 8.275 153.45 8.425 153.15 8.5C152.925 8.575 152.625 8.65 152.4 8.65C151.8 8.65 151.35 8.425 150.975 8.05C150.6 7.675 150.375 7.15 150.375 6.55C150.375 5.95 150.6 5.425 150.975 5.05Z" fill="#163348"/>
<path d="M158.55 13.075H147.075V15.625H158.55V13.075Z" fill="#163348"/>
<path d="M171.45 15.175V12.7H175.95V10.375H164.7V12.7H168.525V15.175H171.45Z" fill="#163348"/>
<path d="M166.95 8.8C167.325 9.175 167.85 9.475 168.375 9.7C168.9 9.925 169.5 10 170.1 10C170.7 10 171.3 9.925 171.9 9.7C172.425 9.475 172.95 9.175 173.325 8.8C173.7 8.425 174.075 7.975 174.3 7.525C174.525 7 174.675 6.475 174.675 5.95C174.675 5.35 174.525 4.825 174.3 4.3C174.075 3.775 173.775 3.325 173.325 3.025C172.875 2.65 172.425 2.35 171.9 2.125C171.375 1.9 170.775 1.825 170.1 1.825C169.5 1.825 168.9 1.9 168.375 2.125C167.85 2.35 167.325 2.65 166.95 3.025C166.575 3.4 166.2 3.85 165.975 4.3C165.75 4.825 165.6 5.35 165.6 5.95C165.6 6.55 165.75 7.075 165.975 7.525C166.275 8.05 166.575 8.425 166.95 8.8ZM168.825 4.675C169.2 4.375 169.65 4.225 170.175 4.225C170.7 4.225 171.15 4.375 171.525 4.675C171.9 4.975 172.05 5.425 172.05 5.95C172.05 6.4 171.9 6.85 171.525 7.15C171.15 7.45 170.7 7.6 170.175 7.6C169.65 7.6 169.2 7.45 168.825 7.15C168.45 6.85 168.3 6.475 168.3 5.95C168.3 5.425 168.45 4.975 168.825 4.675Z" fill="#163348"/>
<path d="M171.975 15.7H169.05V21.175H179.25V18.55H171.975V15.7Z" fill="#163348"/>
<path d="M176.85 13.075H174.375V15.4H179.775V2.34999H176.85V13.075Z" fill="#163348"/>
<path d="M143.025 1.75H140.1V18.475H143.025V10.6H145.875V7.9H143.025V1.75Z" fill="#163348"/>
<path d="M134.175 8.425H131.25V14.125H128.775V16.75H139.425V14.125H134.175V8.425Z" fill="#163348"/>
<path d="M135.75 12.625H138.525V2.27499H129.45V4.89999H135.75V12.625Z" fill="#163348"/>
<path d="M48.3 5.2H44.775V1.75H42V11.65H51.075V1.75H48.3V5.2ZM48.3 9.25H44.775V7.675H48.3V9.25Z" fill="#163348"/>
<path d="M56.4 1.75H53.475V11.425H56.4V8.425H59.25V5.725H56.4V1.75Z" fill="#163348"/>
<path d="M45.9 14.725H48.15V16.075H45.9V21.1H50.85V19.15H48.525V17.8H50.85V12.55H45.9V14.725Z" fill="#163348"/>
<path d="M51.525 15.1H53.175V21.1H55.875V12.55H51.525V15.1Z" fill="#163348"/>
</svg>
